<svg width="70" height="70" viewBox="0 0 70 70" fill="none" xmlns="http://www.w3.org/2000/svg">
<path d="M35 0C15.67 0 0 15.6702 0 35.0004C0 45.8345 4.92329 55.5181 12.6537 61.9382L12.7966 61.8711V59.9906C12.7966 56.9184 15.2959 54.4191 18.368 54.4191H51.632C54.7041 54.4191 57.2034 56.9184 57.2034 59.9906V61.8711L57.3463 61.9382C65.0767 55.5181 70 45.8345 70 35.0004C70 15.6702 54.33 0 35 0Z" fill="#5F80F8"/>
<path d="M23.8574 51.5029H46.1431V54.4182H23.8574V51.5029Z" fill="white"/>
<path d="M23.8574 51.5029H29.5717V54.4182H23.8574V51.5029Z" fill="#EAF6FF"/>
<path d="M51.6306 54.2754H18.3666C15.2108 54.2754 12.6523 56.8338 12.6523 59.9897V61.9373C18.7145 66.9718 26.5028 69.9998 34.9986 69.9998C43.4945 69.9998 51.2828 66.9718 57.3449 61.9373V59.9897C57.3449 56.8337 54.7865 54.2754 51.6306 54.2754Z" fill="#D8ECFE"/>
<path d="M18.5937 59.9897C18.5937 56.8338 21.1522 54.2754 24.308 54.2754H18.3686C15.2127 54.2754 12.6543 56.8338 12.6543 59.9897V61.9373C14.4857 63.4582 16.4754 64.7945 18.5937 65.9211V59.9897Z" fill="#C4E2FF"/>
<path d="M35.5419 65.3483L39.6302 60.6096C40.0295 60.1467 39.7006 59.4287 39.0894 59.4287H30.9129C30.3016 59.4287 29.9728 60.1467 30.3721 60.6096L34.4604 65.3483C34.7452 65.6786 35.2569 65.6786 35.5419 65.3483Z" fill="white"/>
<path d="M33.3207 60.6096C32.9214 60.1467 33.2502 59.4287 33.8616 59.4287H30.9149C30.3036 59.4287 29.9747 60.1467 30.374 60.6096L34.4622 65.3483C34.7472 65.6786 35.2589 65.6786 35.5439 65.3483L36.4764 64.2673L33.3207 60.6096Z" fill="#EAF6FF"/>
<path d="M12.4145 44.9617V38.761C12.4145 37.6209 12.5279 36.5069 12.7425 35.4287H11.6988C9.58905 35.4287 7.87891 37.1389 7.87891 39.2486V42.4955C7.87891 44.6052 9.58905 46.3154 11.6988 46.3154H12.5563C12.4639 45.8785 12.4145 45.4258 12.4145 44.9617Z" fill="white"/>
<path d="M58.3015 35.4287H57.2578C57.4724 36.5067 57.5858 37.6209 57.5858 38.761V44.9617C57.5858 45.4258 57.5364 45.8785 57.4441 46.3155H58.3017C60.4114 46.3155 62.1215 44.6054 62.1215 42.4956V39.2487C62.1214 37.1389 60.4112 35.4287 58.3015 35.4287Z" fill="white"/>
<path d="M51.047 51.6463H18.9601C15.2682 51.6463 12.2754 48.6534 12.2754 44.9615V38.7609C12.2754 29.2674 19.9712 21.5713 29.4647 21.5713H40.5422C50.0357 21.5713 57.7317 29.2674 57.7317 38.7609V44.9615C57.7317 48.6534 54.7388 51.6463 51.047 51.6463Z" fill="#D8ECFE"/>
<path d="M19.716 44.9614V42.7392C18.639 41.2206 18.0033 39.3682 18.0033 37.3689C18.0033 34.0068 19.7953 31.0557 22.4742 29.4197C25.5377 24.6965 30.8563 21.5713 36.9054 21.5713H29.4629C19.9694 21.5713 12.2734 29.2674 12.2734 38.7609V44.9615C12.2734 48.6534 15.2663 51.6463 18.9582 51.6463H26.4007C22.7089 51.6463 19.716 48.6534 19.716 44.9614Z" fill="#C4E2FF"/>
<path d="M27.3095 46.6778C22.1774 46.6778 18.002 42.5024 18.002 37.3702C18.002 32.238 22.1774 28.0625 27.3095 28.0625H42.6912C47.8234 28.0625 51.9988 32.238 51.9988 37.3702C51.9988 42.5024 47.8234 46.6778 42.6912 46.6778H27.3095Z" fill="#116D9A"/>
<path d="M24.0004 37.3702C24.0004 32.238 28.1758 28.0625 33.308 28.0625H27.3095C22.1774 28.0625 18.002 32.238 18.002 37.3702C18.002 42.5024 22.1774 46.6778 27.3095 46.6778H33.308C28.1758 46.6778 24.0004 42.5024 24.0004 37.3702Z" fill="#005E89"/>
<path d="M39.9687 41.857H30.037C29.5096 41.857 29.082 41.4294 29.082 40.902V39.374C29.082 38.8465 29.5096 38.4189 30.037 38.4189H39.9687C40.4962 38.4189 40.9237 38.8465 40.9237 39.374V40.902C40.9237 41.4294 40.4962 41.857 39.9687 41.857Z" fill="#F2C94C"/>
<path d="M27.4086 37.2728H24.9257C24.3983 37.2728 23.9707 36.8452 23.9707 36.3178V33.8349C23.9707 33.3075 24.3983 32.8799 24.9257 32.8799H27.4086C27.936 32.8799 28.3636 33.3075 28.3636 33.8349V36.3178C28.3636 36.8452 27.936 37.2728 27.4086 37.2728Z" fill="#F2C94C"/>
<path d="M45.0746 37.2728H42.5917C42.0643 37.2728 41.6367 36.8452 41.6367 36.3178V33.8349C41.6367 33.3075 42.0643 32.8799 42.5917 32.8799H45.0746C45.602 32.8799 46.0296 33.3075 46.0296 33.8349V36.3178C46.0296 36.8452 45.602 37.2728 45.0746 37.2728Z" fill="#F2C94C"/>
</svg>
