<svg width="12" height="15" viewBox="0 0 12 15" fill="none" xmlns="http://www.w3.org/2000/svg">
<path d="M0.42 15V0.899999H6.88C8.38667 0.899999 9.54667 1.22667 10.36 1.88C11.1867 2.53333 11.6 3.42667 11.6 4.56C11.6 5.4 11.36 6.11333 10.88 6.7C10.4 7.28667 9.74 7.68 8.9 7.88V7.56C9.55333 7.66667 10.1067 7.87333 10.56 8.18C11.0133 8.48667 11.36 8.88 11.6 9.36C11.8533 9.84 11.98 10.3933 11.98 11.02C11.98 11.8467 11.78 12.56 11.38 13.16C10.9933 13.76 10.4333 14.22 9.7 14.54C8.98 14.8467 8.11333 15 7.1 15H0.42ZM3.38 12.7H6.68C7 12.7 7.28667 12.6733 7.54 12.62C7.79333 12.5667 8.00667 12.4933 8.18 12.4C8.36667 12.3067 8.52 12.1867 8.64 12.04C8.76 11.88 8.84667 11.7 8.9 11.5C8.96667 11.3 9 11.08 9 10.84C9 10.5867 8.96667 10.3667 8.9 10.18C8.84667 9.98 8.76 9.80667 8.64 9.66C8.52 9.51333 8.36667 9.39333 8.18 9.3C8.00667 9.19333 7.79333 9.12 7.54 9.08C7.28667 9.02667 7 9 6.68 9H3.38V12.7ZM3.38 6.7H6.34C7.11333 6.7 7.68667 6.55333 8.06 6.26C8.43333 5.96667 8.62 5.52667 8.62 4.94C8.62 4.36667 8.43333 3.93333 8.06 3.64C7.68667 3.34667 7.11333 3.2 6.34 3.2H3.38V6.7Z" fill="#4880FF"/>
</svg>
