<svg width="180" height="29" viewBox="0 0 180 29" fill="none" xmlns="http://www.w3.org/2000/svg">
<path d="M1.988 28V8.26H11.032C13.1413 8.26 14.7653 8.71733 15.904 9.632C17.0613 10.5467 17.64 11.7973 17.64 13.384C17.64 14.56 17.304 15.5587 16.632 16.38C15.96 17.2013 15.036 17.752 13.86 18.032V17.584C14.7747 17.7333 15.5493 18.0227 16.184 18.452C16.8187 18.8813 17.304 19.432 17.64 20.104C17.9947 20.776 18.172 21.5507 18.172 22.428C18.172 23.5853 17.892 24.584 17.332 25.424C16.7907 26.264 16.0067 26.908 14.98 27.356C13.972 27.7853 12.7587 28 11.34 28H1.988ZM6.132 24.78H10.752C11.2 24.78 11.6013 24.7427 11.956 24.668C12.3107 24.5933 12.6093 24.4907 12.852 24.36C13.1133 24.2293 13.328 24.0613 13.496 23.856C13.664 23.632 13.7853 23.38 13.86 23.1C13.9533 22.82 14 22.512 14 22.176C14 21.8213 13.9533 21.5133 13.86 21.252C13.7853 20.972 13.664 20.7293 13.496 20.524C13.328 20.3187 13.1133 20.1507 12.852 20.02C12.6093 19.8707 12.3107 19.768 11.956 19.712C11.6013 19.6373 11.2 19.6 10.752 19.6H6.132V24.78ZM6.132 16.38H10.276C11.3587 16.38 12.1613 16.1747 12.684 15.764C13.2067 15.3533 13.468 14.7373 13.468 13.916C13.468 13.1133 13.2067 12.5067 12.684 12.096C12.1613 11.6853 11.3587 11.48 10.276 11.48H6.132V16.38ZM28.2328 28.308C26.6088 28.308 25.2088 28.0187 24.0328 27.44C22.8754 26.8427 21.9794 26.012 21.3448 24.948C20.7288 23.8653 20.4208 22.596 20.4208 21.14C20.4208 19.7213 20.7194 18.48 21.3167 17.416C21.9141 16.3333 22.7448 15.4933 23.8088 14.896C24.8914 14.28 26.1141 13.972 27.4768 13.972C28.8208 13.972 29.9781 14.2613 30.9488 14.84C31.9194 15.4 32.6661 16.2027 33.1888 17.248C33.7301 18.2933 34.0008 19.5347 34.0008 20.972V22.036H23.8928V19.852H30.9488L30.5008 20.244C30.5008 19.1053 30.2488 18.2467 29.7448 17.668C29.2594 17.0707 28.5594 16.772 27.6448 16.772C26.9541 16.772 26.3661 16.9307 25.8808 17.248C25.3954 17.5653 25.0221 18.0227 24.7608 18.62C24.4994 19.2173 24.3688 19.936 24.3688 20.776V21C24.3688 21.952 24.5088 22.736 24.7888 23.352C25.0874 23.9493 25.5261 24.3973 26.1048 24.696C26.7021 24.9947 27.4394 25.144 28.3168 25.144C29.0634 25.144 29.8194 25.032 30.5848 24.808C31.3501 24.584 32.0408 24.2387 32.6568 23.772L33.7768 26.6C33.0861 27.1227 32.2368 27.5427 31.2288 27.86C30.2394 28.1587 29.2408 28.308 28.2328 28.308ZM43.1259 28.308C41.1659 28.308 39.7099 27.832 38.7579 26.88C37.8059 25.928 37.3299 24.528 37.3299 22.68V17.416H34.7259V14.252H37.3299V10.22H41.5579V14.252H45.6179V17.416H41.5579V22.512C41.5579 23.296 41.7352 23.884 42.0899 24.276C42.4632 24.668 43.0512 24.864 43.8539 24.864C44.0966 24.864 44.3486 24.836 44.6099 24.78C44.8899 24.724 45.1886 24.6493 45.5059 24.556L46.1219 27.636C45.7299 27.8413 45.2632 28 44.7219 28.112C44.1806 28.2427 43.6486 28.308 43.1259 28.308ZM53.4345 28.308C51.4745 28.308 50.0185 27.832 49.0665 26.88C48.1145 25.928 47.6385 24.528 47.6385 22.68V17.416H45.0345V14.252H47.6385V10.22H51.8665V14.252H55.9265V17.416H51.8665V22.512C51.8665 23.296 52.0438 23.884 52.3985 24.276C52.7718 24.668 53.3598 24.864 54.1625 24.864C54.4052 24.864 54.6572 24.836 54.9185 24.78C55.1985 24.724 55.4972 24.6493 55.8145 24.556L56.4305 27.636C56.0385 27.8413 55.5718 28 55.0305 28.112C54.4892 28.2427 53.9572 28.308 53.4345 28.308ZM65.0101 28.308C63.3861 28.308 61.9861 28.0187 60.8101 27.44C59.6528 26.8427 58.7568 26.012 58.1221 24.948C57.5061 23.8653 57.1981 22.596 57.1981 21.14C57.1981 19.7213 57.4968 18.48 58.0941 17.416C58.6914 16.3333 59.5221 15.4933 60.5861 14.896C61.6688 14.28 62.8914 13.972 64.2541 13.972C65.5981 13.972 66.7554 14.2613 67.7261 14.84C68.6968 15.4 69.4434 16.2027 69.9661 17.248C70.5074 18.2933 70.7781 19.5347 70.7781 20.972V22.036H60.6701V19.852H67.7261L67.2781 20.244C67.2781 19.1053 67.0261 18.2467 66.5221 17.668C66.0368 17.0707 65.3368 16.772 64.4221 16.772C63.7314 16.772 63.1434 16.9307 62.6581 17.248C62.1728 17.5653 61.7994 18.0227 61.5381 18.62C61.2768 19.2173 61.1461 19.936 61.1461 20.776V21C61.1461 21.952 61.2861 22.736 61.5661 23.352C61.8648 23.9493 62.3034 24.3973 62.8821 24.696C63.4794 24.9947 64.2168 25.144 65.0941 25.144C65.8408 25.144 66.5968 25.032 67.3621 24.808C68.1274 24.584 68.8181 24.2387 69.4341 23.772L70.5541 26.6C69.8634 27.1227 69.0141 27.5427 68.0061 27.86C67.0168 28.1587 66.0181 28.308 65.0101 28.308ZM73.2373 28V14.252H77.3813V17.612H77.1013C77.3253 16.492 77.8106 15.6333 78.5573 15.036C79.3226 14.42 80.3306 14.0653 81.5813 13.972L82.8133 13.888L83.0653 17.444L80.6853 17.696C79.6213 17.7893 78.8279 18.0973 78.3053 18.62C77.8013 19.1427 77.5493 19.8987 77.5493 20.888V28H73.2373ZM89.8443 28V11.844H83.3203V8.26H100.708V11.844H94.1843V28H89.8443ZM110.812 28.308C109.356 28.308 108.021 28.0653 106.808 27.58C105.613 27.0947 104.587 26.404 103.728 25.508C102.869 24.612 102.207 23.5387 101.74 22.288C101.292 21.0373 101.068 19.6467 101.068 18.116C101.068 16.5667 101.292 15.176 101.74 13.944C102.207 12.6933 102.869 11.6293 103.728 10.752C104.587 9.856 105.613 9.16533 106.808 8.68C108.021 8.19467 109.356 7.952 110.812 7.952C112.287 7.952 113.621 8.19467 114.816 8.68C116.011 9.16533 117.037 9.84667 117.896 10.724C118.755 11.6013 119.417 12.6653 119.884 13.916C120.351 15.1667 120.584 16.5573 120.584 18.088C120.584 19.6373 120.351 21.0373 119.884 22.288C119.417 23.5387 118.755 24.612 117.896 25.508C117.037 26.404 116.011 27.0947 114.816 27.58C113.621 28.0653 112.287 28.308 110.812 28.308ZM110.812 24.612C111.932 24.612 112.875 24.36 113.64 23.856C114.405 23.3333 114.993 22.5867 115.404 21.616C115.833 20.6267 116.048 19.46 116.048 18.116C116.048 16.7533 115.843 15.5867 115.432 14.616C115.021 13.6453 114.424 12.908 113.64 12.404C112.856 11.9 111.913 11.648 110.812 11.648C109.729 11.648 108.796 11.9 108.012 12.404C107.228 12.908 106.631 13.6453 106.22 14.616C105.809 15.5867 105.604 16.7533 105.604 18.116C105.604 19.46 105.809 20.6267 106.22 21.616C106.631 22.5867 107.228 23.3333 108.012 23.856C108.796 24.36 109.729 24.612 110.812 24.612ZM123.941 28V8.26H137.465V11.648H128.085V16.268H136.849V19.684H128.085V24.612H137.465V28H123.941ZM140.894 28V8.26H145.234V28H140.894ZM158.755 28.308C156.627 28.308 154.807 27.888 153.295 27.048C151.783 26.208 150.617 25.032 149.795 23.52C148.993 21.9893 148.591 20.188 148.591 18.116C148.591 16.044 148.993 14.252 149.795 12.74C150.617 11.228 151.783 10.052 153.295 9.212C154.807 8.372 156.627 7.952 158.755 7.952C160.062 7.952 161.313 8.15733 162.507 8.568C163.702 8.97867 164.682 9.53867 165.447 10.248L164.103 13.692C163.263 13.0387 162.414 12.5627 161.555 12.264C160.715 11.9467 159.829 11.788 158.895 11.788C157.029 11.788 155.61 12.3387 154.639 13.44C153.669 14.5227 153.183 16.0813 153.183 18.116C153.183 20.1507 153.669 21.7187 154.639 22.82C155.61 23.9213 157.029 24.472 158.895 24.472C159.829 24.472 160.715 24.3227 161.555 24.024C162.414 23.7067 163.263 23.2213 164.103 22.568L165.447 26.012C164.682 26.7213 163.702 27.2813 162.507 27.692C161.313 28.1027 160.062 28.308 158.755 28.308Z" fill="#4880FF"/>
</svg>
